# xmcd
#
# Track frame offsets: 
#        150
#        13503
#        37765
#        55918
#        75605
#        94299
#        116145
#        135127
#        157557
#        178261
#        198526
#        215361
#
# Disc length: 3134 seconds
#
# Revision: 0
# Processed by: cddbd v1.5.2PL0 Copyright (c) Steve Scherf et al.
# Submitted via: ExactAudioCopy v1.3
#
DISCID=910c3c0c
DTITLE=Michael Martin Murphey  - Tall Grass and Cool Water
DYEAR=2011
DGENRE=Country
TTITLE0=Texas Cowboy
TTITLE1=Cool Water
TTITLE2=Santa Fe Trai
TTITLE3=Way Out There
TTITLE4=The Railroad Corral
TTITLE5=Partner to the Wind
TTITLE6=Trusty Lariat
TTITLE7=The Ballad of Cole Younger
TTITLE8=The Ballad of Jesse James
TTITLE9=Frank James Farewell
TTITLE10=Blue Prairie
TTITLE11=Springtime in the Rockies
EXTD=
EXTT0=
EXTT1=
EXTT2=
EXTT3=
EXTT4=
EXTT5=
EXTT6=
EXTT7=
EXTT8=
EXTT9=
EXTT10=
EXTT11=
PLAYORDER=
